# xmcd
#
# Track frame offsets: 
#        150
#        29327
#        52125
#        72222
#        88692
#        116407
#        141295
#        170687
#        197220
#        217520
#
# Disc length: 3153 seconds
#
# Revision: 0
# Processed by: cddbd v1.5.2PL0 Copyright (c) Steve Scherf et al.
# Submitted via: ExactAudioCopy v1.0b3
#
DISCID=8f0c4f0a
DTITLE=Tuan Vu, Huong Lan - Neu Ai Co Hoi
DYEAR=1992
DGENRE=
TTITLE0=Huong Lan - Han tinh trong mua
TTITLE1=Tuan Vu - Bay di canh chim bien
TTITLE2=Huong Lan - Mot minh trong chieu vang
TTITLE3=Tuan Vu - Thanh pho mua bay
TTITLE4=Tuan Vu - Khong ten so 2
TTITLE5=Huong Lan - Giot sau trinh nu
TTITLE6=Tuan Vu - Giang ngoc
TTITLE7=Huong Lan - Tinh dau tinh cuoi
TTITLE8=Tuan Vu - Khong ten cuoi cung
TTITLE9=Tuan Vu - Tinh khuc buon
EXTD=
EXTT0=
EXTT1=
EXTT2=
EXTT3=
EXTT4=
EXTT5=
EXTT6=
EXTT7=
EXTT8=
EXTT9=
PLAYORDER=
